<?xml version="1.0" encoding="utf-8"?>
<!-- Generator: Adobe Illustrator 27.2.0, SVG Export Plug-In . SVG Version: 6.00 Build 0)  -->
<svg version="1.1" id="Layer_1" xmlns="http://www.w3.org/2000/svg" xmlns:xlink="http://www.w3.org/1999/xlink" x="0px" y="0px"
	 viewBox="0 0 185 42" style="enable-background:new 0 0 185 42;" xml:space="preserve">
<style type="text/css">
	.st0{fill:#D81F26;}
</style>
<g>
	<g>
		<path class="st0" d="M24.5,0.2c-2.3,6.1-4.6,12.4-7,18.9c2.4,6.5,4.9,12.7,7.3,18.8c-2.3,0.4-4.6,0.7-6.9,1.1
			c-1.8-4.8-3.5-9.8-5.3-14.8c0,0-0.1,0-0.1,0c-1.8,5.4-3.6,11-5.4,16.7C5,41.3,3,41.8,1,42.2C3.4,34.5,5.8,27,8.3,19.9
			C6,13.5,3.7,7,1.4,0.2c2.3,0,4.6,0,6.8,0c1.6,5,3.3,9.9,4.9,14.6c0,0,0.1,0,0.1,0c1.7-5,3.4-9.8,5.1-14.6
			C20.4,0.2,22.4,0.2,24.5,0.2z"/>
		<path class="st0" d="M49.4,34.8c-2.2,0.2-4.4,0.4-6.7,0.7c-0.4-2.1-0.7-4.2-1.1-6.3c-2.7,0.3-5.4,0.5-8.1,0.8
			c-0.4,2.2-0.8,4.5-1.2,6.8c-2,0.3-4,0.6-6,0.9c2.3-12.8,4.6-25.3,6.9-37.5c3.2,0,6.4,0,9.7,0C45.1,12,47.3,23.5,49.4,34.8z
			 M34.4,25c2.1-0.2,4.2-0.4,6.4-0.5c-1-5.9-2-11.9-3-17.9c0,0-0.1,0-0.1,0C36.6,12.6,35.5,18.8,34.4,25z"/>
		<path class="st0" d="M66.5,23.9c0,0,0.1,0,0.1,0c1.5-8,3-15.8,4.5-23.7c3.1,0,6.1,0,9.2,0c0,10.9,0,21.8-0.1,32.8
			c-2.1,0.1-4.2,0.1-6.3,0.2c0-7.9,0-15.8,0.1-23.6c0,0-0.1,0-0.1,0c-1.5,7.9-3,15.8-4.5,23.9c-2.1,0.1-4.2,0.2-6.3,0.4
			c-1.6-7.8-3.1-15.7-4.7-23.6c0,0-0.1,0-0.1,0c0,8-0.1,16-0.1,24c-1.9,0.1-3.9,0.3-5.8,0.5c0.1-11.5,0.1-22.9,0.2-34.4
			c3.1,0,6.1,0,9.2,0C63.4,8.1,64.9,16,66.5,23.9z"/>
		<path class="st0" d="M93.8,19.8c-0.7,1-1.4,2-2,3c0,3.3,0,6.7,0,10c-2.2,0-4.4,0-6.6,0.1c0-10.9,0-21.8,0-32.6c2.2,0,4.4,0,6.6,0
			c0,4.7,0,9.4,0,14.1c0,0,0.1,0,0.1,0c2.8-4.7,5.7-9.4,8.5-14.1c2.2,0,4.4,0,6.6,0c-3,4.9-6.1,9.7-9.2,14.5
			c3.1,6,6.2,12.1,9.2,18.3c-2.3-0.1-4.5-0.1-6.8-0.2C98.1,28.4,95.9,24.1,93.8,19.8z"/>
		<path class="st0" d="M116.6,14.9c2.8,0.1,5.7,0.1,8.5,0.2c0,1.6,0,3.2,0,4.8c-2.8-0.1-5.7-0.2-8.5-0.3c0,4.6,0,9.1,0,13.7
			c-2.2-0.1-4.4-0.2-6.6-0.3c0-11-0.1-21.9-0.1-32.9c5.8,0,11.6,0,17.5,0c0,1.6,0,3.2,0,4.8c-3.6,0-7.2-0.1-10.9-0.1
			C116.6,8.3,116.6,11.6,116.6,14.9z"/>
		<path class="st0" d="M130.6,0.2c2.2,0,4.4,0,6.6,0c0.1,9.9,0.1,19.9,0.2,29.8c3.6,0.3,7.2,0.7,10.9,1c0,1.7,0,3.4,0,5.1
			c-5.8-0.7-11.6-1.3-17.5-1.8C130.7,23,130.7,11.6,130.6,0.2z"/>
		<path class="st0" d="M151,0.2c2.2,0,4.4,0,6.6,0c0.1,12.4,0.1,24.8,0.2,37.2c-2.2-0.3-4.4-0.6-6.6-0.9
			C151.1,24.4,151,12.3,151,0.2z"/>
		<path class="st0" d="M184.4,0.2c-2.3,6.8-4.6,13.3-6.9,19.7c2.5,7.2,4.9,14.6,7.3,22.3c-2.3-0.5-4.6-0.9-6.9-1.4
			c-1.8-5.7-3.6-11.2-5.3-16.7c0,0-0.1,0-0.1,0c-1.8,5-3.6,9.9-5.3,14.8c-2-0.3-4.1-0.7-6.2-1c2.4-6.1,4.8-12.4,7.3-18.8
			c-2.3-6.5-4.6-12.8-7-18.9c2.3,0,4.6,0,6.8,0c1.7,4.8,3.3,9.7,5,14.6c0,0,0.1,0,0.1,0c1.7-4.8,3.3-9.7,5-14.7
			C180.3,0.2,182.3,0.2,184.4,0.2z"/>
	</g>
</g>
</svg>
